<?xml version="1.0" encoding="UTF-8" standalone="no"?>
<svg id="svg2" xmlns:rdf="http://www.w3.org/1999/02/22-rdf-syntax-ns#" xmlns="http://www.w3.org/2000/svg" height="150" width="150" version="1.1" xmlns:cc="http://creativecommons.org/ns#" xmlns:dc="http://purl.org/dc/elements/1.1/" viewBox="0 0 150 150">
 <g id="g4" fill="none" transform="translate(54.22 54.359)">
  <path id="path6" fill="#000" d="m28.247-14.528c-1.4442-0.33387-2.9293 0.36811-3.5818 1.6994l-13.563 27.565c-0.48214 0.98692-0.4231 2.1575 0.1563 3.088 0.57818 0.93042 1.6103 1.5006 2.7059 1.5006h13.562c0.84032 0 1.6623-0.34023 2.2544-0.93067 0.59263-0.5946 0.93586-1.4159 0.93586-2.2497v-27.571c0-1.4812-1.0221-2.7663-2.469-3.1014zm24.78-32.365v63.037c0 0.83381 0.33784 1.6551 0.93243 2.2497 0.59312 0.59044 1.4156 0.93067 2.2537 0.93067h39.567c-0.546-29.232-17.864-54.368-42.753-66.217zm39.82 88.496h-36.634c-0.83811 0-1.6605 0.33509-2.2537 0.92822-0.59459 0.59215-0.93243 1.4169-0.93243 2.2529v43.601c19.156-9.118 33.828-26.11 39.821-46.782zm-65.322 0h-27.652c-1.2208 0-2.3257 0.68265-2.8644 1.7735l-19.102 38.832c12.153 8.466 26.931 13.434 42.874 13.434 3.3693 0 6.6858-0.22478 9.9356-0.65404v-50.203c0-0.83601-0.34323-1.6608-0.93586-2.2529-0.59214-0.59313-1.4141-0.92822-2.2544-0.92822zm-59.615 0h-19.198c2.5915 8.9398 6.8073 17.189 12.305 24.413l9.7567-19.83c0.48042-0.98644 0.4231-2.1561-0.15679-3.0858-0.57891-0.92969-1.6096-1.4979-2.7071-1.4979zm-22.13-22.278h36.222c1.2193 0 2.3237-0.68803 2.861-1.7806l35.267-71.685c-40.657 0.3461-73.594 32.975-74.35 73.466z"/>
 </g>
</svg>
