<svg id="live" xmlns="http://www.w3.org/2000/svg" viewBox="0 0 128.92 34.54"><defs><style>.cls-1{fill:#fff;}.cls-2{fill:none;stroke:#fff;stroke-linecap:round;stroke-linejoin:round;stroke-width:2.07px;}</style></defs><title>resilio-logo-open-sans-light</title><path class="cls-1" d="M676.25,41.38v8.76H673.8V29.09h5.78q3.87,0,5.72,1.48A5.38,5.38,0,0,1,687.15,35q0,4.18-4.23,5.65l5.72,9.46h-2.89l-5.1-8.76h-4.39Zm0-2.1h3.36a5.8,5.8,0,0,0,3.8-1,3.83,3.83,0,0,0,1.21-3.09,3.51,3.51,0,0,0-1.23-3,6.67,6.67,0,0,0-4-.92h-3.18v8.05Z" transform="translate(-627.25 -21.1)"/><path class="cls-1" d="M698,50.43a7.25,7.25,0,0,1-5.52-2.13,8.25,8.25,0,0,1-2-5.92,9.15,9.15,0,0,1,1.88-6.06,6.24,6.24,0,0,1,5-2.25,6,6,0,0,1,4.7,2,7.48,7.48,0,0,1,1.73,5.15v1.51H692.91a6.26,6.26,0,0,0,1.4,4.22,4.86,4.86,0,0,0,3.75,1.44,12.7,12.7,0,0,0,5-1.07v2.13a12.67,12.67,0,0,1-2.4.79A13.49,13.49,0,0,1,698,50.43Zm-0.65-14.36a3.9,3.9,0,0,0-3,1.24A5.71,5.71,0,0,0,693,40.74h8.25a5.26,5.26,0,0,0-1-3.46A3.55,3.55,0,0,0,697.34,36.07Z" transform="translate(-627.25 -21.1)"/><path class="cls-1" d="M717.69,45.83a4,4,0,0,1-1.64,3.4,7.72,7.72,0,0,1-4.61,1.2,10,10,0,0,1-4.9-1V47.22a11.8,11.8,0,0,0,2.44.91,10.16,10.16,0,0,0,2.51.33,5.7,5.7,0,0,0,2.88-.6,2.06,2.06,0,0,0,.21-3.4,12.61,12.61,0,0,0-3.12-1.55,16.92,16.92,0,0,1-3.13-1.43A4.27,4.27,0,0,1,707,40.09a3.62,3.62,0,0,1-.45-1.86,3.54,3.54,0,0,1,1.57-3,7.31,7.31,0,0,1,4.31-1.12,12.6,12.6,0,0,1,5,1L716.51,37a11.44,11.44,0,0,0-4.31-1,5,5,0,0,0-2.56.53,1.65,1.65,0,0,0-.86,1.47,1.79,1.79,0,0,0,.32,1.08,3.19,3.19,0,0,0,1,.85,23.45,23.45,0,0,0,2.77,1.17,10.35,10.35,0,0,1,3.79,2.06A3.63,3.63,0,0,1,717.69,45.83Z" transform="translate(-627.25 -21.1)"/><path class="cls-1" d="M721,30.08a1.59,1.59,0,0,1,.4-1.2,1.49,1.49,0,0,1,2,0,1.56,1.56,0,0,1,.42,1.2,1.59,1.59,0,0,1-.42,1.2,1.4,1.4,0,0,1-1,.4,1.38,1.38,0,0,1-1-.4A1.62,1.62,0,0,1,721,30.08Zm2.59,20.06h-2.39V34.36h2.39V50.14Z" transform="translate(-627.25 -21.1)"/><path class="cls-1" d="M730.72,50.14h-2.39V27.73h2.39V50.14Z" transform="translate(-627.25 -21.1)"/><path class="cls-1" d="M735.24,30.08a1.59,1.59,0,0,1,.4-1.2,1.49,1.49,0,0,1,2,0,1.56,1.56,0,0,1,.42,1.2,1.59,1.59,0,0,1-.42,1.2,1.4,1.4,0,0,1-1,.4,1.38,1.38,0,0,1-1-.4A1.62,1.62,0,0,1,735.24,30.08Zm2.59,20.06h-2.39V34.36h2.39V50.14Z" transform="translate(-627.25 -21.1)"/><path class="cls-1" d="M756.17,42.23a8.71,8.71,0,0,1-1.94,6,6.85,6.85,0,0,1-5.37,2.17,7.11,7.11,0,0,1-3.76-1,6.55,6.55,0,0,1-2.54-2.85,9.94,9.94,0,0,1-.89-4.35,8.69,8.69,0,0,1,1.93-6A6.82,6.82,0,0,1,749,34.07a6.68,6.68,0,0,1,5.26,2.2A8.67,8.67,0,0,1,756.17,42.23Zm-12,0a7.49,7.49,0,0,0,1.21,4.61,4.8,4.8,0,0,0,7.12,0,7.46,7.46,0,0,0,1.22-4.62,7.34,7.34,0,0,0-1.22-4.57,4.28,4.28,0,0,0-3.59-1.56,4.21,4.21,0,0,0-3.54,1.54A7.42,7.42,0,0,0,744.14,42.23Z" transform="translate(-627.25 -21.1)"/><path class="cls-2" d="M628.29,38.4l3.9,3.88-3.89-3.89a16.24,16.24,0,0,0,31.92,4.19" transform="translate(-627.25 -21.1)"/><path class="cls-2" d="M656.83,34.41l3.92,3.92a16.24,16.24,0,0,0-31.92-4.17" transform="translate(-627.25 -21.1)"/></svg>